<?xml version="1.0" encoding="UTF-8"?><svg id="Ebene_1" xmlns="http://www.w3.org/2000/svg" viewBox="0 0 737.71 277.91"><defs><style>.cls-1{letter-spacing:0em;}.cls-2{letter-spacing:-.01em;}.cls-3{letter-spacing:0em;}.cls-4{letter-spacing:-.02em;}.cls-5{letter-spacing:0em;}.cls-6{letter-spacing:-.01em;}.cls-7{stroke-width:0px;}.cls-7,.cls-8,.cls-9{fill:#1d1d1b;}.cls-8{font-size:25.07px;}.cls-8,.cls-9{font-family:MontserratRoman-Medium, Montserrat;font-variation-settings:'wght' 500;font-weight:500;}.cls-10{letter-spacing:0em;}.cls-11{letter-spacing:-.01em;}.cls-9{font-size:47.79px;}.cls-12{letter-spacing:0em;}</style></defs><path class="cls-7" d="M161.21,204.16H2.95V39.76h190.45l-32.93,42.76H54.06v19.66h130.24l-29.24,37.35H54.06v22.36h139.83M193.89,161.89"/><path class="cls-7" d="M325.88,82.23c14.5,16.83,20.89,24.99,26.54,32.67,5.41-7.68,11.79-15.68,26.29-32.51l26.29-31.04c5.9-7.02,14.74-11.6,28.01-11.6s24.08,4.9,28.51,15.03l41.53,96.06h-50.62l-15.48-38.06c-5.16-12.42-8.6-21.24-11.3-30.06-5.41,7.68-11.55,16.01-22.85,30.22l-22.12,27.45c-8.6,10.78-16.96,12.25-29.24,12.25s-20.64-1.47-29.24-12.25l-22.12-27.61c-12.04-15.03-17.94-22.71-23.1-30.06-2.46,8.66-6.14,17.81-11.06,30.06l-15.48,38.06h-49.89l42.51-96.06c4.42-10.13,15.97-15.03,28.75-15.03s21.87,4.41,27.77,11.6l26.29,30.88Z"/><path class="cls-7" d="M668.16,161.89c12.04,0,17.45-3.44,17.45-12.04s-5.41-11.79-17.45-11.79h-89.45c-42.27,0-61.68-18.92-61.68-47.18,0-30.96,20.64-51.11,70.53-51.11h142.78l-32.68,42.76h-114.03c-11.79,0-17.45,2.95-17.45,11.3s5.65,11.55,17.45,11.55h89.45c40.06,0,61.68,14.99,61.68,44.97,0,33.67-20.4,53.82-70.53,53.82H158.52l32.66-42.27"/><text class="cls-9" transform="translate(0 265.53) scale(.98 1)"><tspan class="cls-5" x="0" y="0">E</tspan><tspan class="cls-4" x="31.54" y="0">V</tspan><tspan x="64.85" y="0">ENT MAN</tspan><tspan class="cls-5" x="296.01" y="0">A</tspan><tspan class="cls-3" x="330.52" y="0">GEMENT </tspan><tspan class="cls-2" x="556.8" y="0">SY</tspan><tspan class="cls-1" x="615.97" y="0">S</tspan><tspan x="645.17" y="0">TEM</tspan></text><text class="cls-8" transform="translate(1.27 21.31) scale(.98 1)"><tspan x="0" y="0">TNZ DIEN</tspan><tspan class="cls-12" x="123.92" y="0">S</tspan><tspan class="cls-10" x="139.24" y="0">TLEI</tspan><tspan class="cls-6" x="193.41" y="0">S</tspan><tspan class="cls-11" x="208.73" y="0">T</tspan><tspan x="223.12" y="0">UNGEN</tspan></text></svg>